<svg width="255" height="60" viewBox="0 0 255 60" fill="none" xmlns="http://www.w3.org/2000/svg">
<path fill-rule="evenodd" clip-rule="evenodd" d="M31.1386 9.55491H32.6148C32.5433 9.02594 32.0843 8.61473 31.5332 8.61473H30.9622H22.7772H22.2062C21.606 8.61473 21.1148 9.10286 21.1148 9.69931V16.8307H21.691V29.3736L19.7932 30.032V16.8307H20.4233V9.64543C20.4233 8.73214 21.1753 7.98481 22.0944 7.98481H22.7772H30.9622H31.6451C32.5336 7.98481 33.2658 8.68336 33.3136 9.55491H34.698C35.413 9.55491 35.9979 10.1365 35.9979 10.847V12.9725H36.8047C38.329 12.9725 39.1265 13.4496 39.1265 15.112V20.244H39.2153C39.4189 20.244 39.5853 20.4094 39.5853 20.6116V20.6984C39.5853 20.9005 39.4189 21.0658 39.2153 21.0658H39.1265V22.4513H39.2153C39.4189 22.4513 39.5853 22.6165 39.5853 22.8188V22.9056C39.5853 23.1077 39.4189 23.273 39.2153 23.273H39.1265V29.1311L37.7243 28.7821V23.273H37.605C37.4015 23.273 37.2351 23.1077 37.2351 22.9056V22.8188C37.2351 22.6165 37.4015 22.4513 37.605 22.4513H37.7243V21.0658H37.605C37.4015 21.0658 37.2351 20.9005 37.2351 20.6984V20.6116C37.2351 20.4094 37.4015 20.244 37.605 20.244H37.7243V15.148C37.7455 14.6951 37.3993 14.3386 36.9089 14.3661H35.9979V28.4212L29.8386 26.8888V10.847C29.8386 10.1364 30.4235 9.55491 31.1386 9.55491ZM38.7614 55.499L38.8617 55.5488C39.6789 55.9541 40.3599 57.1213 40.3753 58.1428L40.4031 60L37.3316 58.4765L37.3038 56.6192C37.2884 55.5978 37.9444 55.0936 38.7614 55.499ZM42.5349 51.7732C44.1864 52.1192 45.2443 53.475 45.3914 55.0197L45.3917 55.02L45.3919 55.0261C45.4036 55.1505 45.4092 55.2763 45.4088 55.4028L45.4975 57.377L44.2665 58.1378L43.9172 57.7521L43.954 57.6754C43.9553 57.6608 43.9598 57.6428 43.9679 57.6204C44.5594 55.9969 44.2524 53.5645 42.1934 52.5459C41.8178 52.3557 41.3585 52.2159 40.8796 52.0875L39.7893 51.8226L40.9604 51.3962L42.5349 51.7732ZM41.0753 52.2992C43.6413 52.8369 44.775 55.8124 43.2842 58.1464C43.2408 58.2145 42.0306 59.0269 41.9827 59.094C43.1491 57.6881 43.2558 54.3197 40.7337 53.0719C40.3582 52.8819 39.8988 52.7419 39.4199 52.6136L36.4345 51.7955L37.6057 51.3691L41.0753 52.2992ZM39.6969 52.8494C42.508 53.4936 43.4616 56.73 41.7685 59.2137V57.6915C41.7685 56.3083 41.0323 54.989 39.8105 54.7677L39.6969 54.7358L36.2273 53.7307V51.8709L39.6969 52.8494ZM36.058 50.8774C36.2138 50.8774 36.3637 50.9045 36.5032 50.9543L37.4421 51.2433L36.0397 51.7213L36.0404 53.6864L35.8483 53.6813C35.195 53.5769 34.6948 52.9928 34.6948 52.2877C34.6948 51.5088 35.3051 50.8774 36.058 50.8774ZM33.9132 50.4765L36.5894 49.4979V50.8027C36.3998 50.7161 36.1902 50.668 35.9697 50.668C35.1217 50.668 34.4341 51.379 34.4341 52.2564C34.4341 52.9743 34.8945 53.5809 35.5264 53.7777L33.9132 54.3676V50.4765ZM41.6052 57.6777V59.2842L40.6032 59.9264V58.15C40.6032 57.0844 39.8951 55.8566 39.0295 55.4215L38.9232 55.3681C38.7015 55.2565 38.3045 55.1855 38.1125 55.1921C40.0287 54.1245 41.6052 55.8382 41.6052 57.6777ZM38.4095 56.4686C38.5914 56.3401 38.8603 56.4422 39.01 56.6965C39.1598 56.9507 39.1337 57.261 38.9517 57.3894C38.7697 57.5181 38.5008 57.416 38.3511 57.1618C38.2014 56.9074 38.2274 56.5972 38.4095 56.4686ZM27.8294 58.8256H10.7899L0.72049 51.9239H16.9842L27.8294 58.8256ZM11.9856 25.4062V21.9191C11.9856 21.0057 12.7376 20.2584 13.6566 20.2584H14.3396H16.6276V6.44624H15.7659V5.58933H20.0767V6.44624H19.2149V30.3112L16.6276 31.1522V20.8883H14.3396H13.7684C13.1682 20.8883 12.6771 21.3764 12.6771 21.973V25.3501C12.801 25.3436 12.9253 25.3386 13.0503 25.3362V31.7548C10.6581 31.8606 8.71925 33.698 8.47179 36.0366H1.99968C2.24738 30.5067 6.52574 26.0205 11.9856 25.4062ZM41.7611 35.4969C45.1922 35.6488 47.9345 38.4289 48 41.8605H44.2577C44.1959 40.4829 43.1247 39.3664 41.7611 39.2239V35.4969ZM42.6898 38.9885C43.5983 39.3549 44.2983 40.1163 44.5822 41.0527H44.8557C44.5547 39.9718 43.7441 39.097 42.6898 38.7082V38.9885ZM41.5427 48.6111V44.8841H39.8796V48.6111H41.5427ZM41.2348 45.4519V45.1985H40.1932V45.4519H41.2348ZM41.7611 48.6111C45.1922 48.4594 47.9345 45.6791 48 42.2475H44.2577C44.1959 43.6251 43.1247 44.7416 41.7611 44.8841V48.6111ZM42.6898 45.1196C43.5983 44.7531 44.2983 43.9917 44.5822 43.0553H44.8557C44.5547 44.1362 43.7441 45.0111 42.6898 45.3998V45.1196ZM1.99968 36.4111H8.47179V40.1108H7.92298L1.99968 45.9929V36.4111ZM7.4858 36.9392H7.92584V39.6182H7.4858V36.9392ZM13.3905 31.7463H14.7175L16.0444 31.2808V25.3389H13.3905V31.7463ZM13.6658 31.0717V30.6343H15.7079V31.0717H13.6658ZM8.06281 34.4438C8.69939 32.8858 10.0214 31.6849 11.6475 31.1981V30.7291C9.7705 31.2453 8.25125 32.6356 7.5762 34.4438H8.06281ZM8.11143 40.4853L0.000914045 48.5394L0 51.2926H12.028V40.4853H8.11143ZM16.3586 35.1414L16.5897 35.2774V51.2926H12.4421V35.1414H16.3586ZM16.7995 4.94182C16.7995 4.94182 15.5741 4.22785 15.8838 3.06578C16.1937 1.90383 17.0672 1.60992 17.1657 0.853964C17.2644 0.0978976 17.1375 0 17.1375 0C18.8511 0.837515 17.2937 1.82318 17.6306 2.70187C17.8559 3.28982 18.4195 3.94788 18.3772 4.32586C18.335 4.70383 18.0673 4.94182 18.0673 4.94182C18.0673 4.94182 18.0001 4.36896 17.6944 4.02842C17.3887 3.68776 17.1108 3.30117 17.0461 3.02506C16.9812 2.74884 16.9905 2.67522 16.9905 2.67522C16.9905 2.67522 16.7623 3.16107 16.7404 3.56809C16.694 4.42852 17.1681 4.6732 16.7995 4.94182ZM19.0642 1.02469C18.9826 1.41049 18.7151 1.63567 18.5937 1.96396C18.4724 2.29259 18.4273 2.63404 18.5809 2.98059C18.7929 3.45862 19.5625 4.27027 19.1764 4.84586C19.1764 4.84586 19.7717 4.60934 19.7367 3.81584C19.7016 3.02233 19.2464 3.1267 19.1623 2.48634C19.0969 1.98766 19.4174 1.43545 19.0642 1.02469ZM24.9261 12.8186L26.1108 13.0546L27.2955 13.2905L27.7863 13.81L28.2771 14.3296L27.7863 14.8285L27.2955 15.3273L26.1108 15.5133L24.9261 15.6993L23.7413 15.4632L22.5566 15.2274L22.0659 14.7078L21.5751 14.1882L22.0659 13.6893L22.5566 13.1905L23.7413 13.0046L24.9261 12.8186ZM26.5618 15.5631V16.649L26.3082 16.4911V15.6029L26.5618 15.5631ZM23.4743 15.5306V16.4867L23.2207 16.6497V15.4802L23.4743 15.5306ZM24.8196 15.7797H24.996V16.0647H24.8196V15.7797ZM22.5661 17.1911L23.5439 16.5623L24.9155 16.1617L26.131 16.5013L27.2391 17.1911L26.7649 17.8854L26.599 17.8817V17.4147L25.9503 17.0159L25.006 16.8516L24.0615 17.0159L23.2466 17.4147V17.8062L23.062 17.802L22.5661 17.1911ZM26.4841 27.7059V17.6392L25.8811 17.2685L25.0034 17.1158L24.1254 17.2685L23.368 17.6392V28.7947L26.4841 27.7059ZM36.5588 32.2464L33.836 32.8216V42.6024L36.5588 42.8199V32.2464ZM36.8759 32.2464L41.4101 33.1528V42.3667L36.8759 42.8199V32.2464ZM38.0833 36.5019C38.2149 36.5019 38.3216 36.6594 38.3216 36.8536C38.3216 37.0477 38.2149 37.2053 38.0833 37.2053C37.9515 37.2053 37.8448 37.0477 37.8448 36.8536C37.8448 36.6594 37.9515 36.5019 38.0833 36.5019ZM40.1133 36.2007L40.6426 36.2494V37.0904L40.1133 37.0764V36.2007ZM40.6088 39.3517C40.6993 39.3517 40.7727 39.46 40.7727 39.5936C40.7727 39.727 40.6993 39.8354 40.6088 39.8354C40.5183 39.8354 40.4448 39.727 40.4448 39.5936C40.4448 39.46 40.5183 39.3517 40.6088 39.3517ZM39.9758 39.3311C40.0663 39.3311 40.1397 39.4392 40.1397 39.5728C40.1397 39.7063 40.0663 39.8147 39.9758 39.8147C39.8852 39.8147 39.8119 39.7063 39.8119 39.5728C39.8119 39.4392 39.8852 39.3311 39.9758 39.3311ZM39.3427 39.3102C39.4332 39.3102 39.5067 39.4186 39.5067 39.5521C39.5067 39.6856 39.4332 39.7938 39.3427 39.7938C39.2522 39.7938 39.1788 39.6856 39.1788 39.5521C39.1788 39.4186 39.2522 39.3102 39.3427 39.3102ZM38.7097 39.2895C38.8002 39.2895 38.8736 39.3978 38.8736 39.5313C38.8736 39.6648 38.8002 39.7732 38.7097 39.7732C38.6192 39.7732 38.5458 39.6648 38.5458 39.5313C38.5458 39.3978 38.6192 39.2895 38.7097 39.2895ZM38.0766 39.2688C38.1672 39.2688 38.2406 39.3772 38.2406 39.5107C38.2406 39.6441 38.1672 39.7524 38.0766 39.7524C37.9861 39.7524 37.9127 39.6441 37.9127 39.5107C37.9127 39.3772 37.9861 39.2688 38.0766 39.2688ZM40.6088 37.824C40.6993 37.824 40.7727 37.9323 40.7727 38.0658C40.7727 38.1993 40.6993 38.3077 40.6088 38.3077C40.5183 38.3077 40.4448 38.1993 40.4448 38.0658C40.4448 37.9323 40.5183 37.824 40.6088 37.824ZM39.9758 37.8033C40.0663 37.8033 40.1397 37.9115 40.1397 38.0452C40.1397 38.1786 40.0663 38.2869 39.9758 38.2869C39.8852 38.2869 39.8119 38.1786 39.8119 38.0452C39.8119 37.9115 39.8852 37.8033 39.9758 37.8033ZM39.3427 37.7826C39.4332 37.7826 39.5067 37.8909 39.5067 38.0244C39.5067 38.1578 39.4332 38.2661 39.3427 38.2661C39.2522 38.2661 39.1788 38.1578 39.1788 38.0244C39.1788 37.8909 39.2522 37.7826 39.3427 37.7826ZM38.7097 37.7618C38.8002 37.7618 38.8736 37.8701 38.8736 38.0036C38.8736 38.1372 38.8002 38.2454 38.7097 38.2454C38.6192 38.2454 38.5458 38.1372 38.5458 38.0036C38.5458 37.8701 38.6192 37.7618 38.7097 37.7618ZM38.0766 37.741C38.1672 37.741 38.2406 37.8494 38.2406 37.983C38.2406 38.1164 38.1672 38.2247 38.0766 38.2247C37.9861 38.2247 37.9127 38.1164 37.9127 37.983C37.9127 37.8494 37.9861 37.741 38.0766 37.741ZM38.8938 35.8353L39.8276 35.9213V37.4054L38.8938 37.3806V35.8353ZM35.2172 35.6456C35.4659 35.6456 35.6676 35.943 35.6676 36.3099C35.6676 36.6766 35.4659 36.9743 35.2172 36.9743C34.9685 36.9743 34.7669 36.6766 34.7669 36.3099C34.7669 35.943 34.9685 35.6456 35.2172 35.6456ZM29.5642 28.1177L15.4974 33.2812L17.2381 34.8926L14.161 33.0581L29.5253 27.418L39.6416 29.9349V30.6249L29.5642 28.1177ZM29.7804 45.8684L39.6416 44.242V51.4673L36.982 50.6932V48.9384L33.5205 50.2043V54.927L35.8589 54.0719L36.0163 54.0761L38.2048 54.7102C37.8691 54.8576 37.5947 55.0395 37.3863 55.2637L29.7804 58.8256V45.8684ZM29.7804 28.482L39.6416 30.899V32.4968L37.0277 31.9744L36.8047 31.9298L33.6084 32.6051V42.8545L36.8321 43.112L39.6416 42.8312V43.9835L29.7804 45.499V28.482ZM29.3132 45.8684L17.5234 43.6048V51.4728L29.3132 58.8256V45.8684ZM29.3132 31.2053L27.6084 29.1127L19.1059 32.2579L17.7328 34.5766L17.5234 32.9242V43.3464L29.3132 45.499V31.2053ZM35.4239 24.3754V27.7974L35.227 27.7519V24.3754H35.4239ZM30.8044 14.0808H35.227V10.6962L35.4239 10.7992V14.0808V14.2764H35.227H30.8044V14.0808ZM30.8044 23.2703H35.227V19.7806H35.4239V23.2703V23.466H35.227H30.8044V23.2703ZM30.8044 18.6755H35.227V15.1859H35.4239V18.6755V18.8711H35.227H30.8044V18.6755Z" fill="#10498A"/>
<path d="M74.6252 13.8518V12.5806C76.6856 12.6441 78.3486 12.6759 79.6039 12.6759C81.4313 12.6759 83.2796 12.6441 85.1441 12.5806V13.8518C84.8158 13.8518 84.2225 13.8994 83.3643 13.9896C83.0148 14.0318 82.7818 14.1007 82.6599 14.1962C82.5434 14.2861 82.464 14.4185 82.4218 14.5826C82.3262 14.8953 82.2786 16.0341 82.2681 18.0043L82.2363 24.3125L82.1887 29.0689C82.1675 31.6376 82.125 33.1789 82.0669 33.6875C81.9027 34.9641 81.4525 36.1397 80.7268 37.215C80.0011 38.2956 78.9842 39.2541 77.6759 40.1068C76.6856 40.7373 75.7269 41.0551 74.7999 41.0551C74.4929 41.0551 74.1167 40.9862 73.6719 40.8538C73.7354 40.1386 73.7671 39.6566 73.7671 39.4131C73.7671 39.1534 73.7354 38.6874 73.6719 38.0147L74.0424 37.8451C74.6942 38.5655 75.4304 38.9258 76.2565 38.9258C76.6695 38.9258 76.9822 38.8093 77.1993 38.5763C77.4165 38.3432 77.5543 37.6864 77.6178 36.6111C77.7184 34.9428 77.7714 32.8506 77.7714 30.3454L77.7397 18.3434C77.7397 16.2935 77.6918 15.0699 77.6019 14.6781C77.5384 14.4292 77.4165 14.2543 77.2365 14.1537C77.0561 14.0584 76.1875 13.9578 74.6252 13.8518ZM87.1832 32.9513C88.1525 32.8983 88.7512 32.803 88.9789 32.6548C89.1325 32.5541 89.376 32.162 89.7097 31.4788C90.3402 30.1334 91.145 28.2638 92.125 25.8751L97.6068 12.4219H99.8952L106.897 29.0902C107.808 31.1928 108.369 32.342 108.582 32.5433C108.793 32.7446 109.445 32.8824 110.541 32.9513V34.3494C108.851 34.2859 107.257 34.2542 105.758 34.2542C103.968 34.2542 102.263 34.2859 100.647 34.3494V32.9513C101.881 32.8983 102.591 32.8348 102.782 32.7446C102.972 32.6599 103.068 32.5062 103.068 32.2839C103.068 32.0877 102.851 31.4312 102.416 30.3083L101.394 27.7076C100.112 27.6863 98.6875 27.6758 97.109 27.6758C95.7372 27.6758 94.4873 27.6863 93.3644 27.7076L92.6812 29.4556C92.4958 29.9321 92.2679 30.642 92.0031 31.5849C91.9396 31.7966 91.9079 31.9871 91.9079 32.162C91.9079 32.3951 92.0085 32.5592 92.2098 32.6548C92.411 32.75 93.1365 32.8506 94.3867 32.9513V34.3494C93.3749 34.2859 92.1145 34.2542 90.6049 34.2542C89.1696 34.2542 88.0309 34.2859 87.1832 34.3494V32.9513ZM97.342 17.9091L94.0689 25.8961C95.0223 25.9386 96.0655 25.9599 97.2151 25.9599C98.412 25.9599 99.5561 25.9386 100.652 25.8961L97.342 17.9091ZM111.966 34.3494V33.0783C113.221 33.0253 113.957 32.9405 114.174 32.8294C114.318 32.7446 114.424 32.6122 114.498 32.4268C114.609 32.1779 114.683 31.2988 114.709 29.7943C114.768 27.305 114.794 25.4249 114.794 24.1589L114.762 17.57C114.762 15.8274 114.709 14.821 114.593 14.5509C114.535 14.3975 114.434 14.281 114.302 14.2121C114.095 14.0848 113.317 13.9683 111.966 13.8518V12.5806C113.576 12.6441 114.773 12.6759 115.546 12.6759C116.404 12.6759 117.379 12.6441 118.47 12.5806C120.859 15.6261 123.56 18.9364 126.574 22.501C128.581 24.89 130.308 26.8548 131.764 28.4121V22.2416C131.764 19.9006 131.743 17.8824 131.701 16.1877C131.659 15.1814 131.579 14.5616 131.452 14.3337C131.388 14.2121 131.277 14.1219 131.113 14.0689C130.943 14.0159 130.218 13.947 128.936 13.8518V12.5806C130.059 12.6441 131.176 12.6759 132.294 12.6759C133.82 12.6759 135.197 12.6441 136.436 12.5806V13.8518C135.281 13.9261 134.588 14.0054 134.355 14.1007C134.217 14.1537 134.111 14.2226 134.026 14.3178C133.947 14.4134 133.883 14.5299 133.841 14.6781C133.772 14.927 133.73 15.7214 133.719 17.0722L133.671 23.2956L133.639 29.5613C133.639 31.2458 133.671 32.9246 133.735 34.6037L133.534 34.8209C132.273 34.5932 131.389 34.445 130.869 34.3707C128.211 31.4258 125.001 27.7234 121.24 23.2744C119.339 21.0181 117.808 19.1218 116.637 17.5859V23.6188C116.637 25.2605 116.659 27.2415 116.701 29.5562C116.733 31.2617 116.802 32.2468 116.918 32.5062C116.961 32.6176 117.035 32.7075 117.146 32.7659C117.342 32.8824 118.084 32.983 119.371 33.0783V34.3494C117.707 34.2859 116.516 34.2542 115.801 34.2542C115.202 34.2542 113.926 34.2859 111.966 34.3494ZM138.375 32.9513C139.344 32.8983 139.942 32.803 140.17 32.6548C140.324 32.5541 140.567 32.162 140.901 31.4788C141.531 30.1334 142.336 28.2638 143.316 25.8751L148.798 12.4219H151.086L158.088 29.0902C158.999 31.1928 159.561 32.342 159.773 32.5433C159.985 32.7446 160.636 32.8824 161.732 32.9513V34.3494C160.043 34.2859 158.449 34.2542 156.95 34.2542C155.159 34.2542 153.454 34.2859 151.839 34.3494V32.9513C153.073 32.8983 153.782 32.8348 153.973 32.7446C154.164 32.6599 154.259 32.5062 154.259 32.2839C154.259 32.0877 154.042 31.4312 153.608 30.3083L152.585 27.7076C151.304 27.6863 149.879 27.6758 148.3 27.6758C146.928 27.6758 145.679 27.6863 144.556 27.7076L143.872 29.4556C143.687 29.9321 143.459 30.642 143.194 31.5849C143.131 31.7966 143.099 31.9871 143.099 32.162C143.099 32.3951 143.2 32.5592 143.401 32.6548C143.602 32.75 144.328 32.8506 145.578 32.9513V34.3494C144.566 34.2859 143.306 34.2542 141.796 34.2542C140.361 34.2542 139.222 34.2859 138.375 34.3494V32.9513ZM148.533 17.9091L145.26 25.8961C146.214 25.9386 147.257 25.9599 148.406 25.9599C149.603 25.9599 150.747 25.9386 151.844 25.8961L148.533 17.9091ZM163.189 34.3494V33.0783C164.391 32.9725 165.075 32.877 165.255 32.7817C165.366 32.7182 165.451 32.6227 165.498 32.4852C165.604 32.2363 165.678 31.3995 165.716 29.9639C165.768 27.7447 165.795 25.9967 165.795 24.7205C165.795 22.9937 165.774 20.8063 165.731 18.1472C165.689 16.1665 165.594 14.9534 165.44 14.5032C165.398 14.3708 165.313 14.2648 165.191 14.1962C165.027 14.0902 164.36 13.9737 163.189 13.8518V12.5806C165.329 12.6441 166.711 12.6759 167.331 12.6759L175.112 12.5806C176.796 12.5806 178.025 12.7448 178.798 13.0679C179.566 13.3911 180.18 13.9153 180.631 14.6305C181.081 15.3509 181.303 16.1928 181.303 17.1621C181.303 18.4015 180.943 19.4873 180.223 20.4197C179.508 21.3572 178.258 22.1832 176.478 22.9036L179.773 27.9035L182.341 31.7331C182.834 32.3579 183.2 32.7395 183.438 32.8665C183.676 32.9989 184.068 33.0678 184.608 33.0783V34.2542L183.697 34.2701C181.07 34.2859 179.386 34.3126 178.629 34.3494C177.728 32.9087 176.383 30.822 174.587 28.0889L171.388 23.2321C171.483 23.0572 171.557 22.8772 171.621 22.6864C172.034 22.729 172.342 22.7499 172.543 22.7499C173.507 22.7499 174.455 22.3635 175.387 21.5848C176.325 20.8063 176.791 19.6993 176.791 18.2586C176.791 17.0033 176.42 16.0341 175.678 15.3401C174.937 14.6464 173.825 14.2969 172.347 14.2969C171.875 14.2969 171.24 14.3286 170.435 14.3921L170.339 18.984L170.212 24.8103C170.212 26.1294 170.265 27.8136 170.366 29.8686C170.451 31.4153 170.53 32.2839 170.609 32.4693C170.673 32.6068 170.784 32.7129 170.949 32.7976C171.166 32.9246 171.865 33.0148 173.041 33.0783V34.3494C171.187 34.2859 169.54 34.2542 168.11 34.2542C166.579 34.2542 164.942 34.2859 163.189 34.3494ZM190.398 34.3494V33.0783C190.98 33.0783 191.589 33.0253 192.22 32.9246C192.516 32.8719 192.723 32.7871 192.85 32.6652C192.972 32.5487 193.062 32.3316 193.125 32.0084C193.194 31.5636 193.258 29.9321 193.305 27.1091C193.337 25.1018 193.353 23.0572 193.353 20.9705C193.353 16.8655 193.342 14.7788 193.316 14.6994C193.289 14.6198 192.924 14.5826 192.214 14.5826C190.774 14.5826 189.534 14.6251 188.491 14.7099C187.892 14.7575 187.553 14.8105 187.474 14.8636C187.395 14.9166 187.336 15.0064 187.294 15.1388C187.251 15.2712 187.167 16.1877 187.029 17.8878H185.694C185.715 15.8804 185.662 14.1537 185.535 12.7079L185.705 12.5806C188.968 12.7289 192.14 12.8032 195.223 12.8032C198.295 12.8032 201.737 12.7289 205.546 12.5806L205.715 12.8349C205.519 14.2702 205.382 15.9547 205.302 17.8878H203.999C203.904 16.1293 203.814 15.1706 203.718 15.0277C203.65 14.9112 203.485 14.8318 203.226 14.7893C202.4 14.6515 200.758 14.5826 198.295 14.5826C198.088 14.5826 197.966 14.6146 197.924 14.6781C197.882 14.747 197.866 15.0223 197.866 15.4991L197.771 25.9332C197.771 28.9578 197.797 30.8115 197.85 31.5001C197.898 32.1884 198.025 32.6068 198.221 32.75C198.358 32.8453 199.169 32.9567 200.662 33.0783V34.3494C199.147 34.2859 197.537 34.2542 195.837 34.2542C193.602 34.2542 191.791 34.2859 190.398 34.3494ZM207.24 32.9513C208.21 32.8983 208.808 32.803 209.036 32.6548C209.19 32.5541 209.433 32.162 209.767 31.4788C210.397 30.1334 211.202 28.2638 212.182 25.8751L217.664 12.4219H219.952L226.954 29.0902C227.865 31.1928 228.427 32.342 228.639 32.5433C228.851 32.7446 229.502 32.8824 230.598 32.9513V34.3494C228.909 34.2859 227.315 34.2542 225.816 34.2542C224.025 34.2542 222.32 34.2859 220.704 34.3494V32.9513C221.939 32.8983 222.648 32.8348 222.839 32.7446C223.03 32.6599 223.125 32.5062 223.125 32.2839C223.125 32.0877 222.908 31.4312 222.473 30.3083L221.451 27.7076C220.17 27.6863 218.745 27.6758 217.166 27.6758C215.794 27.6758 214.545 27.6863 213.422 27.7076L212.738 29.4556C212.553 29.9321 212.325 30.642 212.06 31.5849C211.997 31.7966 211.965 31.9871 211.965 32.162C211.965 32.3951 212.066 32.5592 212.267 32.6548C212.468 32.75 213.194 32.8506 214.444 32.9513V34.3494C213.432 34.2859 212.172 34.2542 210.662 34.2542C209.227 34.2542 208.088 34.2859 207.24 34.3494V32.9513ZM217.399 17.9091L214.126 25.8961C215.08 25.9386 216.123 25.9599 217.272 25.9599C218.469 25.9599 219.613 25.9386 220.71 25.8961L217.399 17.9091ZM231.833 13.8518V12.5806C233.941 12.6441 235.794 12.6759 237.389 12.6759C238.4 12.6759 239.83 12.6441 241.684 12.5806V13.8518C240.731 13.8518 240.058 13.9365 239.666 14.1007C239.528 14.1537 239.422 14.2385 239.338 14.3655C239.227 14.5086 239.147 14.7521 239.105 15.0966C239.046 15.6738 238.994 17.3475 238.951 20.1019C238.93 22.0191 238.919 23.9684 238.919 25.9491C238.919 27.5752 239.105 28.7724 239.475 29.535C239.846 30.2975 240.387 30.8645 241.102 31.235C242.129 31.7649 243.257 32.0297 244.47 32.0297C246.133 32.0297 247.399 31.7541 248.273 31.2033C249.152 30.6579 249.74 29.9004 250.037 28.9365C250.339 27.9723 250.487 25.8593 250.487 22.6071L250.471 16.8551C250.461 15.5573 250.397 14.7788 250.286 14.5191C250.222 14.3762 250.116 14.2648 249.957 14.1962C249.709 14.0477 248.956 13.9365 247.69 13.8518V12.5806C249.03 12.6441 250.27 12.6759 251.398 12.6759C252.378 12.6759 253.575 12.6441 255 12.5806V13.8518C253.972 13.8518 253.331 13.9683 253.077 14.1962C252.823 14.4239 252.669 15.0118 252.616 15.9652C252.5 18.285 252.436 20.9121 252.425 23.8465C252.425 25.7215 252.405 26.9501 252.362 27.533C252.251 28.9629 251.901 30.181 251.324 31.1928C250.741 32.2043 249.783 33.036 248.437 33.6875C247.092 34.339 245.418 34.6672 243.421 34.6672C241.345 34.6672 239.619 34.3548 238.241 33.7351C236.864 33.11 235.884 32.3262 235.307 31.3782C234.73 30.4302 234.438 29.0422 234.438 27.2044L234.502 20.2076C234.502 19.6517 234.481 18.2269 234.438 15.9334C234.417 15.2185 234.338 14.7312 234.205 14.4715C234.121 14.3286 233.999 14.2121 233.824 14.1324C233.655 14.0477 232.993 13.9578 231.833 13.8518Z" fill="#10498A"/>
<path d="M111.591 47.4216V47.1733C111.791 47.0529 111.942 46.9448 112.046 46.8459C112.088 46.3601 112.109 45.2878 112.109 43.6252C112.109 42.4217 112.091 41.5705 112.057 41.0703C112.039 40.8004 112.003 40.6423 111.948 40.5955C111.87 40.5251 111.604 40.4802 111.148 40.4586V40.0267L112.158 40.0447L112.932 40.0591C113.167 40.0591 113.513 40.0537 113.973 40.0429C114.418 40.0321 114.738 40.0267 114.931 40.0267C115.708 40.0267 116.265 40.1564 116.602 40.4155C116.938 40.6764 117.108 41.0307 117.108 41.4806C117.108 41.9431 116.942 42.3226 116.609 42.614C116.276 42.9075 115.807 43.116 115.2 43.2421V43.2852C115.825 43.3481 116.262 43.4437 116.516 43.5713C116.767 43.6974 116.971 43.895 117.124 44.1631C117.278 44.4312 117.356 44.7355 117.356 45.079C117.356 45.4984 117.228 45.894 116.974 46.2684C116.721 46.6425 116.384 46.9286 115.965 47.1248C115.546 47.3227 114.956 47.4216 114.195 47.4216C114.044 47.4216 113.819 47.4162 113.516 47.4054C113.236 47.3946 113.005 47.3892 112.827 47.3892C112.627 47.3892 112.216 47.4 111.591 47.4216ZM113.61 43.0603H113.885C114.479 43.0603 114.896 42.9525 115.137 42.7383C115.379 42.5223 115.499 42.186 115.499 41.7289C115.499 41.3276 115.402 41.0307 115.206 40.842C115.01 40.6512 114.688 40.5557 114.24 40.5557C114.074 40.5557 113.871 40.57 113.631 40.5991C113.613 41.6804 113.605 42.3423 113.605 42.5852L113.61 43.0603ZM113.621 46.828C113.824 46.8783 114.017 46.9034 114.196 46.9034C114.695 46.9034 115.08 46.7596 115.346 46.4733C115.614 46.1855 115.747 45.7647 115.747 45.2069C115.747 44.8451 115.686 44.5483 115.566 44.3162C115.443 44.0858 115.276 43.9148 115.064 43.8016C114.851 43.6884 114.547 43.6324 114.153 43.6324L113.621 43.6377V43.7746L113.61 45.1455L113.621 46.5311V46.828ZM120.087 47.4216V46.9897C120.445 46.9897 120.695 46.9573 120.834 46.8944C120.916 46.8567 120.971 46.7758 120.996 46.6533C121.003 46.6174 121.019 46.2756 121.042 45.626L121.048 45.2411C121.048 44.766 121.025 44.4692 120.98 44.3503C120.902 44.1541 120.63 43.6866 120.166 42.9507C119.702 42.2147 119.347 41.6912 119.101 41.3782C118.854 41.0631 118.648 40.8582 118.479 40.7591C118.419 40.7249 118.342 40.7069 118.246 40.7069L117.993 40.7177V40.2966C118.576 40.196 119.153 40.0738 119.722 39.9297C119.909 40.0177 120.064 40.1205 120.186 40.2409C120.364 40.4191 120.612 40.7698 120.929 41.2916C121.248 41.8134 121.651 42.5655 122.144 43.5497L122.575 42.8102C122.967 42.141 123.486 41.2125 124.13 40.0267H124.988V40.2912C124.803 40.5126 124.456 41.0182 123.95 41.8098C123.157 43.0549 122.714 43.7836 122.622 43.9996C122.566 44.1361 122.538 44.4078 122.538 44.8164C122.538 45.6421 122.556 46.225 122.59 46.5635C122.608 46.7414 122.653 46.8549 122.729 46.8998C122.802 46.9465 123.074 46.9753 123.542 46.9897V47.4216C123.033 47.4 122.514 47.3892 121.987 47.3892C121.408 47.3892 120.774 47.4 120.087 47.4216ZM128.604 47.4216V47.1517C128.79 47.0673 128.961 46.9681 129.115 46.8549C129.186 46.3044 129.22 45.1473 129.22 43.3841C129.22 42.1824 129.207 41.3854 129.182 40.993C129.173 40.7842 129.137 40.653 129.074 40.5991C129.013 40.5449 128.752 40.4982 128.291 40.4586V40.0267C129.121 40.0483 129.776 40.0591 130.256 40.0591L133.16 40.0267C133.466 40.0267 133.741 40.0393 133.986 40.0627L134.024 40.1223C133.95 40.5036 133.896 41.011 133.862 41.6463H133.441C133.423 41.1353 133.403 40.8618 133.379 40.8256C133.356 40.7914 133.277 40.7573 133.14 40.7267C132.847 40.6638 132.401 40.6315 131.798 40.6315C131.503 40.6315 131.158 40.6422 130.763 40.6638C130.72 41.7577 130.695 42.6284 130.688 43.2762C131.064 43.2978 131.417 43.3086 131.746 43.3086C132.233 43.3086 132.527 43.2924 132.626 43.2618C132.685 43.2403 132.726 43.19 132.752 43.1088C132.773 43.0459 132.797 42.8246 132.825 42.4451H133.279C133.261 43.0405 133.252 43.4293 133.252 43.609L133.279 44.7984H132.825C132.8 44.3341 132.77 44.0679 132.73 43.9978C132.709 43.9546 132.662 43.9241 132.588 43.9058C132.412 43.8681 132.016 43.8483 131.401 43.8483C131.208 43.8483 130.981 43.8591 130.72 43.8807C130.713 44.0679 130.709 44.2569 130.709 44.4512C130.709 45.4567 130.727 46.2322 130.763 46.774L131.809 46.7848C132.405 46.7848 132.948 46.7525 133.441 46.6875C133.527 46.3637 133.61 45.9968 133.689 45.5864H134.132C134.052 46.2124 134.006 46.8136 133.991 47.3892C133.671 47.4108 133.363 47.4216 133.068 47.4216C132.876 47.4216 132.494 47.4162 131.926 47.4054C131.395 47.3946 130.906 47.3892 130.459 47.3892C129.873 47.3892 129.254 47.4 128.604 47.4216ZM134.832 47.4216V46.9897C135.258 46.9717 135.508 46.9429 135.582 46.9052C135.631 46.8764 135.667 46.8315 135.692 46.7686C135.729 46.6839 135.755 46.3852 135.764 45.8743C135.783 45.0287 135.792 44.3899 135.792 43.96L135.782 41.7217C135.782 41.1299 135.764 40.7878 135.724 40.6962C135.704 40.644 135.67 40.6045 135.625 40.5811C135.555 40.5377 135.29 40.4982 134.832 40.4586V40.0267C135.379 40.0483 135.785 40.0591 136.048 40.0591C136.339 40.0591 136.671 40.0483 137.041 40.0267C137.852 41.0613 138.77 42.186 139.794 43.3966C140.476 44.2083 141.062 44.8757 141.557 45.4046V43.3086C141.557 42.5134 141.55 41.8278 141.536 41.2521C141.521 40.9103 141.494 40.6998 141.451 40.6225C141.429 40.5811 141.392 40.5503 141.336 40.5323C141.278 40.5144 141.032 40.491 140.596 40.4586V40.0267C140.978 40.0483 141.357 40.0591 141.737 40.0591C142.255 40.0591 142.723 40.0483 143.144 40.0267V40.4586C142.752 40.4838 142.516 40.5108 142.437 40.5431C142.39 40.5611 142.354 40.5847 142.325 40.6171C142.298 40.6494 142.277 40.689 142.262 40.7393C142.239 40.8238 142.225 41.0939 142.221 41.5525L142.205 43.6668L142.194 45.7952C142.194 46.3673 142.205 46.9376 142.226 47.5078L142.158 47.5818C141.73 47.5043 141.429 47.4539 141.253 47.4288C140.35 46.4284 139.26 45.1707 137.982 43.6593C137.336 42.8932 136.816 42.2489 136.419 41.7271V43.7764C136.419 44.3341 136.426 45.0072 136.44 45.7934C136.451 46.3727 136.474 46.7072 136.514 46.7956C136.528 46.8333 136.553 46.8639 136.591 46.8836C136.658 46.9232 136.91 46.9573 137.347 46.9897V47.4216C136.782 47.4 136.377 47.3892 136.134 47.3892C135.931 47.3892 135.497 47.4 134.832 47.4216ZM144.191 47.4216V47.1517C144.377 47.0673 144.547 46.9681 144.702 46.8549C144.772 46.3044 144.806 45.1473 144.806 43.3841C144.806 42.1824 144.794 41.3854 144.769 40.993C144.76 40.7842 144.724 40.653 144.661 40.5991C144.599 40.5449 144.339 40.4982 143.878 40.4586V40.0267C144.708 40.0483 145.362 40.0591 145.843 40.0591L148.747 40.0267C149.053 40.0267 149.328 40.0393 149.573 40.0627L149.61 40.1223C149.537 40.5036 149.483 41.011 149.448 41.6463H149.028C149.01 41.1353 148.99 40.8618 148.966 40.8256C148.943 40.7914 148.864 40.7573 148.727 40.7267C148.434 40.6638 147.988 40.6315 147.385 40.6315C147.09 40.6315 146.744 40.6422 146.35 40.6638C146.307 41.7577 146.282 42.6284 146.275 43.2762C146.651 43.2978 147.003 43.3086 147.333 43.3086C147.82 43.3086 148.113 43.2924 148.213 43.2618C148.272 43.2403 148.313 43.19 148.338 43.1088C148.36 43.0459 148.383 42.8246 148.412 42.4451H148.866C148.848 43.0405 148.839 43.4293 148.839 43.609L148.866 44.7984H148.412C148.387 44.3341 148.356 44.0679 148.317 43.9978C148.295 43.9546 148.248 43.9241 148.175 43.9058C147.998 43.8681 147.602 43.8483 146.987 43.8483C146.795 43.8483 146.568 43.8591 146.307 43.8807C146.3 44.0679 146.296 44.2569 146.296 44.4512C146.296 45.4567 146.314 46.2322 146.35 46.774L147.395 46.7848C147.991 46.7848 148.535 46.7525 149.028 46.6875C149.114 46.3637 149.197 45.9968 149.276 45.5864H149.718C149.639 46.2124 149.592 46.8136 149.578 47.3892C149.258 47.4108 148.95 47.4216 148.655 47.4216C148.462 47.4216 148.081 47.4162 147.513 47.4054C146.982 47.3946 146.492 47.3892 146.046 47.3892C145.46 47.3892 144.841 47.4 144.191 47.4216ZM150.429 47.4216V46.9897C150.838 46.9537 151.07 46.9214 151.131 46.889C151.169 46.8675 151.197 46.8351 151.214 46.7884C151.25 46.7036 151.275 46.4194 151.287 45.9318C151.305 45.1779 151.314 44.5842 151.314 44.1505C151.314 43.5641 151.307 42.821 151.293 41.9179C151.278 41.2449 151.246 40.8327 151.194 40.68C151.179 40.6351 151.151 40.5991 151.109 40.5755C151.054 40.5395 150.827 40.5 150.429 40.4586V40.0267C151.156 40.0483 151.626 40.0591 151.836 40.0591L154.479 40.0267C155.051 40.0267 155.469 40.0828 155.731 40.1924C155.992 40.302 156.201 40.4802 156.354 40.7231C156.507 40.9678 156.582 41.2539 156.582 41.583C156.582 42.0042 156.46 42.3729 156.215 42.6898C155.973 43.0082 155.548 43.2888 154.943 43.5335L156.062 45.2321L156.935 46.5329C157.102 46.745 157.227 46.8747 157.307 46.9178C157.389 46.9627 157.522 46.9861 157.705 46.9897V47.3892L157.396 47.3946C156.503 47.4 155.931 47.409 155.674 47.4216C155.368 46.9322 154.911 46.2232 154.301 45.295L153.214 43.6449C153.247 43.5856 153.272 43.5245 153.294 43.4598C153.434 43.4742 153.538 43.4814 153.607 43.4814C153.934 43.4814 154.256 43.3499 154.573 43.0854C154.891 42.821 155.049 42.445 155.049 41.9556C155.049 41.5291 154.924 41.2 154.672 40.9642C154.42 40.7285 154.042 40.6099 153.54 40.6099C153.38 40.6099 153.164 40.6207 152.89 40.6422L152.858 42.2022L152.815 44.1814C152.815 44.6292 152.833 45.2013 152.867 45.8994C152.896 46.4248 152.923 46.7198 152.95 46.783C152.971 46.8297 153.009 46.8657 153.065 46.8944C153.139 46.9376 153.376 46.9681 153.776 46.9897V47.4216C153.146 47.4 152.586 47.3892 152.101 47.3892C151.581 47.3892 151.025 47.4 150.429 47.4216ZM163.115 44.8307V44.3988C163.756 44.4132 164.326 44.4204 164.83 44.4204C165.294 44.4204 165.794 44.4132 166.332 44.3988V44.7409C166.177 44.7894 166.03 44.8469 165.89 44.9134C165.847 45.268 165.825 45.5702 165.825 45.8203C165.825 45.9986 165.847 46.3529 165.89 46.8836C165.194 47.1355 164.61 47.3066 164.141 47.3964C163.673 47.4845 163.186 47.5297 162.684 47.5297C161.327 47.5297 160.263 47.1769 159.495 46.4733C158.727 45.7682 158.344 44.8559 158.344 43.7351C158.344 42.5816 158.736 41.6606 159.519 40.9678C160.303 40.275 161.428 39.9297 162.892 39.9297C163.411 39.9297 163.905 39.9692 164.38 40.0501C164.853 40.1313 165.305 40.2553 165.735 40.4191L165.782 40.4982C165.679 40.9445 165.604 41.5004 165.555 42.1644H165.102C165.098 41.8314 165.075 41.5363 165.033 41.2808C164.808 41.02 164.519 40.8255 164.166 40.6962C163.813 40.5665 163.396 40.5018 162.914 40.5018C162.011 40.5018 161.293 40.7752 160.756 41.3239C160.22 41.873 159.952 42.6212 159.952 43.5749C159.952 44.5896 160.235 45.4064 160.8 46.0273C161.365 46.6479 162.061 46.9573 162.887 46.9573C163.328 46.9573 163.795 46.8495 164.292 46.6336C164.321 46.3637 164.335 46.1082 164.335 45.8671C164.335 45.3274 164.303 45.0287 164.24 44.973C164.177 44.917 163.803 44.8685 163.115 44.8307ZM171.273 47.5297C169.976 47.5297 168.982 47.1967 168.294 46.5311C167.604 45.8653 167.261 44.9497 167.261 43.7818C167.261 42.9668 167.428 42.274 167.761 41.7038C168.096 41.1317 168.558 40.6944 169.15 40.3886C169.744 40.0828 170.505 39.9297 171.437 39.9297C172.333 39.9297 173.065 40.0773 173.635 40.3706C174.204 40.6638 174.643 41.0703 174.951 41.592C175.258 42.1138 175.411 42.7545 175.411 43.5137C175.411 44.3359 175.242 45.0467 174.906 45.6457C174.567 46.2451 174.092 46.709 173.479 47.0367C172.865 47.3659 172.13 47.5297 171.273 47.5297ZM171.474 46.9573C172.183 46.9573 172.748 46.6964 173.169 46.1747C173.592 45.6529 173.803 44.8595 173.803 43.7962C173.803 42.679 173.562 41.8206 173.078 41.2233C172.685 40.7429 172.083 40.5018 171.268 40.5018C170.505 40.5018 169.915 40.7537 169.497 41.2557C169.078 41.7577 168.869 42.5313 168.869 43.5749C168.869 44.3252 168.984 44.9622 169.213 45.484C169.443 46.0058 169.735 46.3816 170.089 46.612C170.444 46.8423 170.906 46.9573 171.474 46.9573ZM176.178 47.4216V46.9897L176.493 46.9681C176.748 46.9537 176.906 46.9088 176.971 46.8333C177.036 46.7597 177.074 46.506 177.085 46.0722C177.106 45.2051 177.117 44.264 177.117 43.2529C177.117 42.7149 177.115 42.103 177.111 41.4177C177.108 41.0038 177.084 40.7501 177.043 40.6584C177.022 40.6135 176.984 40.5755 176.926 40.5485C176.87 40.5197 176.62 40.491 176.178 40.4586V40.0267C176.602 40.0339 177.018 40.0375 177.424 40.0375C177.898 40.0375 178.353 40.0339 178.792 40.0267C178.981 40.473 179.177 40.9157 179.38 41.3548C179.524 41.666 180.161 42.992 181.289 45.3309C182.489 42.9291 183.33 41.1604 183.808 40.0267C184.231 40.0483 184.632 40.0591 185.012 40.0591C185.458 40.0591 185.888 40.0483 186.304 40.0267V40.4586C185.838 40.4874 185.575 40.5287 185.514 40.5811C185.454 40.6351 185.415 40.7986 185.397 41.0739C185.375 41.5166 185.364 42.3585 185.364 43.5982C185.364 44.2227 185.37 44.8847 185.381 45.5792C185.391 46.2756 185.415 46.6695 185.451 46.7633C185.476 46.8172 185.51 46.8585 185.557 46.8872C185.604 46.916 185.852 46.9501 186.304 46.9897V47.4216C185.735 47.4 185.226 47.3892 184.78 47.3892C184.33 47.3892 183.72 47.4 182.946 47.4216V46.9897L183.254 46.9789C183.497 46.9681 183.65 46.934 183.709 46.8764C183.77 46.8171 183.81 46.6641 183.828 46.414C183.844 46.1639 183.853 45.5792 183.853 44.6579V41.4752C183.31 42.5637 182.617 43.9906 181.773 45.7539C181.428 46.4805 181.158 47.0709 180.964 47.5297H180.622C180.357 46.9232 180.005 46.1585 179.564 45.2321L177.743 41.4752V42.1914C177.743 44.1739 177.75 45.5397 177.765 46.2882C177.775 46.5922 177.815 46.7812 177.885 46.8513C177.955 46.9232 178.218 46.9681 178.671 46.9897V47.4216C178.315 47.4 177.957 47.3892 177.601 47.3892C177.068 47.3892 176.595 47.4 176.178 47.4216ZM191.061 47.5297C189.763 47.5297 188.77 47.1967 188.081 46.5311C187.392 45.8653 187.049 44.9497 187.049 43.7818C187.049 42.9668 187.216 42.274 187.549 41.7038C187.883 41.1317 188.346 40.6944 188.938 40.3886C189.531 40.0828 190.292 39.9297 191.225 39.9297C192.12 39.9297 192.853 40.0773 193.423 40.3706C193.992 40.6638 194.431 41.0703 194.739 41.592C195.046 42.1138 195.199 42.7545 195.199 43.5137C195.199 44.3359 195.03 45.0467 194.693 45.6457C194.355 46.2451 193.88 46.709 193.267 47.0367C192.653 47.3659 191.917 47.5297 191.061 47.5297ZM191.262 46.9573C191.971 46.9573 192.536 46.6964 192.957 46.1747C193.38 45.6529 193.59 44.8595 193.59 43.7962C193.59 42.679 193.349 41.8206 192.865 41.2233C192.473 40.7429 191.87 40.5018 191.055 40.5018C190.292 40.5018 189.702 40.7537 189.285 41.2557C188.866 41.7577 188.657 42.5313 188.657 43.5749C188.657 44.3252 188.772 44.9622 189.001 45.484C189.231 46.0058 189.522 46.3816 189.877 46.612C190.231 46.8423 190.694 46.9573 191.262 46.9573ZM196.365 47.4216V47.1517C196.61 47.0115 196.782 46.9052 196.885 46.8351C196.933 46.2178 196.959 45.0629 196.959 43.3679C196.959 42.6359 196.951 42.0221 196.935 41.5291C196.919 41.0361 196.896 40.7555 196.865 40.6854C196.851 40.6512 196.829 40.6243 196.797 40.6063C196.744 40.5793 196.489 40.5359 196.03 40.4802V40.0267C196.561 40.0483 197.169 40.0591 197.858 40.0591L200.453 40.0267C201.397 40.0267 202.115 40.1456 202.605 40.385C203.094 40.6243 203.483 40.9894 203.771 41.4824C204.058 41.9736 204.202 42.5709 204.202 43.2726C204.202 44.1757 203.978 44.955 203.528 45.608C203.078 46.263 202.529 46.727 201.881 47.0061C201.235 47.2832 200.544 47.4216 199.809 47.4216L197.81 47.3892C197.489 47.3892 197.009 47.4 196.365 47.4216ZM198.502 46.774C198.799 46.8243 199.102 46.8495 199.411 46.8495C200.197 46.8495 200.796 46.7378 201.208 46.5131C201.62 46.2882 201.955 45.921 202.211 45.41C202.466 44.9008 202.594 44.273 202.594 43.5299C202.594 42.5511 202.34 41.8062 201.833 41.2934C201.385 40.8384 200.654 40.6099 199.64 40.6099C199.42 40.6099 199.042 40.6279 198.502 40.6638L198.459 43.9457C198.459 45.3255 198.474 46.2684 198.502 46.774ZM204.915 40.4586V40.0267C205.631 40.0483 206.26 40.0591 206.802 40.0591C207.146 40.0591 207.632 40.0483 208.261 40.0267V40.4586C207.938 40.4586 207.709 40.4874 207.576 40.5431C207.529 40.5611 207.493 40.5901 207.464 40.6333C207.426 40.6818 207.4 40.7645 207.385 40.8816C207.365 41.0775 207.347 41.6462 207.333 42.5816C207.326 43.2331 207.322 43.895 207.322 44.5681C207.322 45.1204 207.385 45.5271 207.511 45.7862C207.637 46.0453 207.82 46.2379 208.063 46.3637C208.413 46.5437 208.796 46.6336 209.208 46.6336C209.773 46.6336 210.203 46.5401 210.5 46.3529C210.798 46.1675 210.998 45.9102 211.099 45.5828C211.201 45.2555 211.252 44.5375 211.252 43.4329L211.246 41.4788C211.243 41.0379 211.221 40.7734 211.183 40.6854C211.161 40.6369 211.126 40.5991 211.072 40.5755C210.987 40.5251 210.732 40.4874 210.302 40.4586V40.0267C210.757 40.0483 211.178 40.0591 211.561 40.0591C211.894 40.0591 212.301 40.0483 212.785 40.0267V40.4586C212.435 40.4586 212.218 40.4982 212.131 40.5755C212.045 40.653 211.993 40.8528 211.975 41.1766C211.935 41.9646 211.914 42.8569 211.91 43.8537C211.91 44.4908 211.903 44.908 211.888 45.106C211.851 45.5918 211.732 46.0058 211.536 46.3493C211.338 46.6929 211.012 46.9753 210.555 47.1966C210.098 47.418 209.53 47.5297 208.851 47.5297C208.146 47.5297 207.559 47.4234 207.092 47.2128C206.624 47.0005 206.291 46.7342 206.095 46.4122C205.899 46.0902 205.8 45.6188 205.8 44.9946L205.822 42.6176C205.822 42.4289 205.815 41.9449 205.8 41.1658C205.793 40.9229 205.766 40.7573 205.721 40.6692C205.692 40.6207 205.651 40.5811 205.591 40.5539C205.534 40.5251 205.309 40.4946 204.915 40.4586ZM213.733 47.4216V47.1517C213.925 47.0601 214.109 46.9519 214.28 46.8297C214.325 45.8743 214.348 44.8793 214.348 43.8447C214.348 43.0315 214.339 42.2633 214.321 41.5417C214.31 41.0271 214.287 40.7321 214.247 40.6548C214.229 40.6081 214.194 40.5736 214.138 40.5503C214.084 40.5287 213.826 40.4982 213.366 40.4586V40.0267C214.044 40.0483 214.674 40.0591 215.255 40.0591C215.816 40.0591 216.351 40.0483 216.853 40.0267V40.4586C216.372 40.491 216.095 40.5323 216.022 40.5847C215.977 40.6171 215.944 40.6818 215.924 40.7788C215.904 40.8762 215.89 41.4465 215.879 42.49L215.849 45.0647C215.849 45.5487 215.859 46.1064 215.881 46.7414C216.34 46.7632 216.68 46.774 216.899 46.774C217.562 46.774 218.118 46.7198 218.569 46.612C218.664 46.2954 218.758 45.9174 218.85 45.4786H219.314C219.233 45.9914 219.161 46.6281 219.098 47.3892C218.765 47.4108 218.458 47.4216 218.177 47.4216L216.273 47.4L215.42 47.3892C215.028 47.3856 214.465 47.3964 213.733 47.4216Z" fill="#10498A"/>
</svg>
